Coordinates
nRows=211
nColumns=2
inDegrees=yes
endheader
time	ankle_angle_r	
3.69254	 18.478582	
3.72581	 18.511130	
3.75907	 18.524440	
3.79234	 18.512520	
3.8256	 18.487209	
3.85887	 18.469571	
3.89214	 18.471184	
3.9254	 18.483696	
3.95867	 18.493297	
3.99194	 18.498147	
4.0252	 18.503562	
4.05847	 18.512164	
4.09173	 18.521418	
4.125	 18.526115	
4.15827	 18.527190	
4.19153	 18.531092	
4.2248	 18.536513	
4.25806	 18.533945	
4.29133	 18.518713	
4.3246	 18.496900	
4.35786	 18.481423	
4.39113	 18.479306	
4.4244	 18.484245	
4.45766	 18.492041	
4.49093	 18.506059	
4.52419	 18.519876	
4.55746	 18.520740	
4.59073	 18.506469	
4.62399	 18.486739	
4.65726	 18.475857	
4.69052	 18.476645	
4.72379	 18.477491	
4.75706	 18.475859	
4.79032	 18.481557	
4.82359	 18.496888	
4.85685	 18.512248	
4.89012	 18.514661	
4.92339	 18.501945	
4.95665	 18.488825	
4.98992	 18.487435	
5.02319	 18.492714	
5.05645	 18.493892	
5.08972	 18.488689	
5.12298	 18.485414	
5.15625	 18.488559	
5.18952	 18.486805	
5.22278	 18.472872	
5.25605	 18.456993	
5.28931	 18.444857	
5.32258	 18.431537	
5.35585	 18.418275	
5.38911	 18.411000	
5.42238	 18.408815	
5.45565	 18.403678	
5.48891	 18.390929	
5.52218	 18.377734	
5.55544	 18.374033	
5.58871	 18.378612	
5.62198	 18.382441	
5.65524	 18.381212	
5.68851	 18.378161	
5.72177	 18.379170	
5.75504	 18.386516	
5.78831	 18.395716	
5.82157	 18.403522	
5.85484	 18.411406	
5.8881	 18.420839	
5.92137	 18.435944	
5.95464	 18.454507	
5.9879	 18.459576	
6.02117	 18.445686	
6.05444	 18.434300	
6.0877	 18.442688	
6.12097	 18.459899	
6.15423	 18.464744	
6.1875	 18.451741	
6.22077	 18.435577	
6.25403	 18.431390	
6.2873	 18.435174	
6.32056	 18.437182	
6.35383	 18.440483	
6.3871	 18.451302	
6.42036	 18.467970	
6.45363	 18.482129	
6.4869	 18.485269	
6.52016	 18.479451	
6.55343	 18.472653	
6.58669	 18.465800	
6.61996	 18.458561	
6.65323	 18.455203	
6.68649	 18.454647	
6.71976	 18.450077	
6.75302	 18.444020	
6.78629	 18.446660	
6.81956	 18.459298	
6.85282	 18.473682	
6.88609	 18.479789	
6.91935	 18.475011	
6.95262	 18.469633	
6.98589	 18.470698	
7.01915	 18.472881	
7.05242	 18.471753	
7.08569	 18.468232	
7.11895	 18.465029	
7.15222	 18.465718	
7.18548	 18.472516	
7.21875	 18.484737	
7.25202	 18.497275	
7.28528	 18.504295	
7.31855	 18.506182	
7.35181	 18.507595	
7.38508	 18.514487	
7.41835	 18.528434	
7.45161	 18.536685	
7.48488	 18.525853	
7.51815	 18.504701	
7.55141	 18.493337	
7.58468	 18.496776	
7.61794	 18.503926	
7.65121	 18.505911	
7.68448	 18.502370	
7.71774	 18.492900	
7.75101	 18.474266	
7.78427	 18.449855	
7.81754	 18.433176	
7.85081	 18.432764	
7.88407	 18.440890	
7.91734	 18.445506	
7.9506	 18.445444	
7.98387	 18.448559	
8.01714	 18.459852	
8.0504	 18.474743	
8.08367	 18.486626	
8.11694	 18.496172	
8.1502	 18.503352	
8.18347	 18.502829	
8.21673	 18.498802	
8.25	 18.504880	
8.28327	 18.523075	
8.31653	 18.537475	
8.3498	 18.531205	
8.38306	 18.508661	
8.41633	 18.494690	
8.4496	 18.505116	
8.48286	 18.526863	
8.51613	 18.535401	
8.5494	 18.522781	
8.58266	 18.499186	
8.61593	 18.479427	
8.64919	 18.473134	
8.68246	 18.476967	
8.71573	 18.479133	
8.74899	 18.474429	
8.78226	 18.470040	
8.81552	 18.476186	
8.84879	 18.491352	
8.88206	 18.503916	
8.91532	 18.508260	
8.94859	 18.505328	
8.98185	 18.496583	
9.01512	 18.489339	
9.04839	 18.489493	
9.08165	 18.491337	
9.11492	 18.492455	
9.14819	 18.497330	
9.18145	 18.501686	
9.21472	 18.501037	
9.24798	 18.501371	
9.28125	 18.504950	
9.31452	 18.502994	
9.34778	 18.487331	
9.38105	 18.466261	
9.41431	 18.461249	
9.44758	 18.476938	
9.48085	 18.493140	
9.51411	 18.493545	
9.54738	 18.478378	
9.58065	 18.459110	
9.61391	 18.452636	
9.64718	 18.462884	
9.68044	 18.480435	
9.71371	 18.500432	
9.74698	 18.515316	
9.78024	 18.513554	
9.81351	 18.500309	
9.84677	 18.488202	
9.88004	 18.476003	
9.91331	 18.461646	
9.94657	 18.454161	
9.97984	 18.457546	
10.0131	 18.463818	
10.0464	 18.467860	
10.0796	 18.472015	
10.1129	 18.473408	
10.1462	 18.463532	
10.1794	 18.444171	
10.2127	 18.428377	
10.246	 18.422063	
10.2792	 18.419111	
10.3125	 18.417080	
10.3458	 18.422315	
10.379	 18.438340	
10.4123	 18.456841	
10.4456	 18.462648	
10.4788	 18.453435	
10.5121	 18.444552	
10.5454	 18.446115	
10.5786	 18.454868	
10.6119	 18.467547	
10.6452	 18.480528	
10.6784	 18.489231	
